# xmcd
#
# Track frame offsets:
#	150
#	13944
#	35228
#	52538
#	67560
#	83332
#	98436
#	116675
#	135907
#	153589
#	171291
#	187226
#
# Disc length: 2758 seconds
# Revision: 0
# Processed by: cddbd v1.5.2PL0 Copyright (c) Steve Scherf et al.
# Submitted via: dBpowerAMP V12.0
#
DISCID=8b0ac40c
DTITLE=Various Artist - Darkness and Light
DYEAR=2016
DGENRE=R&B
TTITLE0=John Legend - I Know Better
TTITLE1=John Legend and Chance The Rapper - Penthouse Floor
TTITLE2=John Legend and Brittany Howard - Darkness and Light
TTITLE3=John Legend and Miguel - Overload
TTITLE4=John Legend - Love Me Now
TTITLE5=John Legend - What You Do To Me
TTITLE6=John Legend - Surefire
TTITLE7=John Legend - Right By You (For Luna)
TTITLE8=John Legend - Temporarily Painless
TTITLE9=John Legend - How Can I Blame You
TTITLE10=John Legend - Same Old Story
TTITLE11=John Legend - Marching Into The Dark
EXTD=
EXTT0=
EXTT1=
EXTT2=
EXTT3=
EXTT4=
EXTT5=
EXTT6=
EXTT7=
EXTT8=
EXTT9=
EXTT10=
EXTT11=
PLAYORDER=
